<?xml version="1.0" standalone="no"?><!DOCTYPE svg PUBLIC "-//W3C//DTD SVG 1.1//EN" "http://www.w3.org/Graphics/SVG/1.1/DTD/svg11.dtd"><svg t="1509690379498" class="icon" style="" viewBox="0 0 1024 1024" version="1.1" xmlns="http://www.w3.org/2000/svg" p-id="16223" xmlns:xlink="http://www.w3.org/1999/xlink" width="48" height="48"><defs><style type="text/css"></style></defs><path d="M514.115702 21.157025C246.534347 21.157025 29.619835 237.127934 29.619835 503.53719c0 266.413488 216.914512 482.380165 484.495867 482.380165S998.61157 769.946446 998.61157 503.53719 781.697058 21.157025 514.115702 21.157025z m0 900.853421c-231.762512 0-420.313917-187.726281-420.313917-418.477487 0-230.746975 188.551405-418.473256 420.313917-418.473257 231.758281 0 420.309686 187.726281 420.309686 418.473257 0.004231 230.751207-188.547174 418.477488-420.309686 418.477487zM736.175603 282.446281c-18.554711-15.550413-59.531636 1.028231-60.559867 0l-230.116496 111.717554a117.506116 117.506116 0 0 0-40.376066 40.156033L292.055802 684.429752c-15.152661 25.143008 0 40.198347 0 40.198347s15.11881 15.084959 40.376066 0l250.410314-111.781025a117.556893 117.556893 0 0 0 40.20681-39.986776L736.175603 342.743802c-0.968992-1.015537 13.658975-42.16595 0-60.297521z m-60.559867 80.396694l-100.753984 164.229289c-2.492298 6.389421-6.249785 12.321851-10.840859 17.818447l-0.939372 1.540231-0.181951-0.177719c-0.926678 1.049388-1.637554 2.221488-2.640396 3.224331-25.485752 25.371504-66.796959 25.371504-92.27848 0-25.485752-25.371504-25.485752-66.504992 0-91.880728 1.007074-1.002843 2.179174-1.709488 3.237025-2.631933l-0.165025-0.169257 1.438678-0.858975c5.585455-4.650314 11.636364-8.420496 18.135802-10.921256L655.427702 342.743802c9.495273-6.579835 20.188033 0 20.188034 0s2.581157 15.859306 0 20.099173z m60.559867-80.396694c0.016926 0.012694-13.658975-18.13157 0 0z" p-id="16224" fill="#cdcdcd"></path></svg>