<?xml version="1.0" standalone="no"?><!DOCTYPE svg PUBLIC "-//W3C//DTD SVG 1.1//EN" "http://www.w3.org/Graphics/SVG/1.1/DTD/svg11.dtd"><svg t="1510648682754" class="icon" style="" viewBox="0 0 6826 1024" version="1.1" xmlns="http://www.w3.org/2000/svg" p-id="6282" xmlns:xlink="http://www.w3.org/1999/xlink" width="106.65625" height="16"><defs><style type="text/css"></style></defs><path d="M1193.64345 388.84371a36.904053 36.904053 0 0 0-32.125724-24.574259L851.651675 316.571496 716.919885 21.168421A36.946716 36.946716 0 0 0 682.746305 0.007253a36.946716 36.946716 0 0 0-32.851006 21.161168l-136.779645 294.677793L200.51913 362.221596a36.904053 36.904053 0 0 0-19.838595 61.435648l224.368107 231.236954-53.329555 325.395618a36.776062 36.776062 0 0 0 15.060266 35.837462c11.519184 8.106092 26.579451 9.002029 38.951908 2.3465l273.559289-152.138557 273.601953 152.821175a35.624143 35.624143 0 0 0 38.994572-2.047855 36.776062 36.776062 0 0 0 15.060266-35.453488l-52.689601-325.395618 225.69068-229.914381a36.776062 36.776062 0 0 0 13.69503-37.501344M3924.116708 388.84371a36.904053 36.904053 0 0 0-32.125724-24.574259L3582.124933 316.571496 3447.393143 21.168421A36.946716 36.946716 0 0 0 3413.219564 0.007253a36.946716 36.946716 0 0 0-32.851007 21.161168l-136.779645 294.677793L2930.992388 362.221596a36.904053 36.904053 0 0 0-19.838595 61.435648l224.368108 231.236954-53.329556 325.395618a36.776062 36.776062 0 0 0 15.060266 35.837462c11.519184 8.106092 26.579451 9.002029 38.951908 2.3465l273.559289-152.138557 273.601954 152.821175a35.624143 35.624143 0 0 0 38.994571-2.047855 36.776062 36.776062 0 0 0 15.060266-35.453488l-52.689601-325.395618 225.69068-229.914381a36.776062 36.776062 0 0 0 13.69503-37.501344M2558.880079 388.84371a36.904053 36.904053 0 0 0-32.125724-24.574259L2216.888304 316.571496 2082.156514 21.168421A36.946716 36.946716 0 0 0 2047.982935 0.007253a36.946716 36.946716 0 0 0-32.851007 21.161168l-136.779645 294.677793L1565.755759 362.221596a36.904053 36.904053 0 0 0-19.838595 61.435648l224.368107 231.236954-53.329555 325.395618a36.776062 36.776062 0 0 0 15.060266 35.837462c11.519184 8.106092 26.579451 9.002029 38.951908 2.3465l273.559289-152.138557 273.601954 152.821175a35.624143 35.624143 0 0 0 38.994571-2.047855 36.776062 36.776062 0 0 0 15.060266-35.453488l-52.689601-325.395618 225.69068-229.914381a36.776062 36.776062 0 0 0 13.69503-37.501344M5257.227613 364.269451l-309.866051-47.740618-134.73179-295.360412a36.946716 36.946716 0 0 0-34.173579-21.161168 36.946716 36.946716 0 0 0-32.851007 21.161168l-136.779644 294.677793L4296.229017 362.221596a36.904053 36.904053 0 0 0-19.838595 61.435648l224.368108 231.236954-53.329556 325.395618a36.776062 36.776062 0 0 0 15.060266 35.837462c11.519184 8.106092 26.579451 9.002029 38.951908 2.3465l273.559289-152.138557 273.601954 152.821175a35.624143 35.624143 0 0 0 38.994571-2.047855 36.776062 36.776062 0 0 0 15.060266-35.453488l-52.689601-325.395618 225.690681-229.914381a36.776062 36.776062 0 0 0 13.695029-37.501344 36.904053 36.904053 0 0 0-32.125724-24.574259zM6622.464242 364.269451l-309.866051-47.740618-134.73179-295.360412a36.946716 36.946716 0 0 0-34.173579-21.161168 36.946716 36.946716 0 0 0-32.851007 21.161168l-136.779644 294.677793L5661.465646 362.221596a36.904053 36.904053 0 0 0-19.838595 61.435648l224.368108 231.236954-53.329556 325.395618a36.776062 36.776062 0 0 0 15.060266 35.837462c11.519184 8.106092 26.579451 9.002029 38.951908 2.3465l273.55929-152.138557 273.601953 152.821175a35.624143 35.624143 0 0 0 38.994571-2.047855 36.776062 36.776062 0 0 0 15.060267-35.453488l-52.689602-325.395618 225.690681-229.914381a36.776062 36.776062 0 0 0 13.69503-37.501344 36.904053 36.904053 0 0 0-32.125725-24.574259z" fill="#d1d1d1" p-id="6283"></path></svg>