<?xml version="1.0" standalone="no"?><!DOCTYPE svg PUBLIC "-//W3C//DTD SVG 1.1//EN" "http://www.w3.org/Graphics/SVG/1.1/DTD/svg11.dtd"><svg t="1510987036093" class="icon" style="" viewBox="0 0 1024 1024" version="1.1" xmlns="http://www.w3.org/2000/svg" p-id="3230" xmlns:xlink="http://www.w3.org/1999/xlink" width="16" height="16"><defs><style type="text/css"></style></defs><path d="M910.2980608 103.4121184l-796.727104 0c-43.8673632 0-79.447856 35.4844384-79.447856 79.25902187l0 196.4758816c0 204.0565344 128.63531947 387.78447573 309.35828907 456.0572832l0 75.29241386c0 15.2813728 5.1541888 19.92036053 18.21757866 21.12431467 304.76077867 24.88134933 628.06004587-208.690064 628.06004587-552.47401173L989.7590144 182.67223147C989.7579232 138.897648 954.18507093 103.4121184 910.2980608 103.4121184zM795.29809173 548.9165216c-62.754048 92.67934187-167.057056 148.00445973-279.01930666 148.00445973-185.568256 0-336.5383936-150.61211627-336.5383936-335.74376213 0-22.03573973 17.9032192-39.8909312 39.9848032-39.8909312 22.08049173 0 39.98371093 17.85628373 39.98371093 39.8909312 0 141.13984853 115.09493227 255.96080747 256.5687872 255.96080747 85.360656 0 164.89255893-42.19514453 212.75600107-112.8791328 12.35498987-18.26014827 37.21341653-23.04430933 55.50958613-10.72861547C802.841632 505.86780373 807.65744747 530.65746453 795.29809173 548.9165216zM818.8084832 409.57550933c-28.40588907 0-51.42618453-22.9711776-51.42618453-51.3017504 0-28.3393056 23.02029653-51.3104832 51.42618453-51.3104832 28.4047968 0 51.41636053 22.9711776 51.41636053 51.3104832C870.22484373 386.60542293 847.2143712 409.57550933 818.8084832 409.57550933z" fill="#eb460a" p-id="3231"></path></svg>