<?xml version="1.0" standalone="no"?><!DOCTYPE svg PUBLIC "-//W3C//DTD SVG 1.1//EN" "http://www.w3.org/Graphics/SVG/1.1/DTD/svg11.dtd"><svg t="1509691273886" class="icon" style="" viewBox="0 0 1024 1024" version="1.1" xmlns="http://www.w3.org/2000/svg" p-id="25970" xmlns:xlink="http://www.w3.org/1999/xlink" width="48" height="48"><defs><style type="text/css"></style></defs><path d="M969.436496 1024H54.563504c-8.969343 0-17.191241-3.737226-23.170803-9.716788-5.979562-5.979562-8.969343-14.20146-8.969343-23.170803 5.232117-156.963504 93.430657-358.773723 234.69781-449.962044-50.826277-59.048175-79.229197-134.540146-79.229197-212.274453 0-181.629197 150.236496-328.875912 334.108029-328.875912s334.108029 147.994161 334.108029 328.875912c0 77.734307-28.40292 153.226277-79.229197 212.274453 140.519708 91.188321 228.718248 292.251095 234.69781 449.962044 0 8.969343-2.989781 17.191241-8.969343 23.170803-5.979562 6.727007-14.20146 9.716788-23.170803 9.716788zM88.19854 960.467153h846.855475c-16.443796-144.256934-104.642336-321.40146-233.950365-382.691971-9.716788-4.484672-16.443796-13.454015-17.938686-23.918248-1.494891-10.464234 2.242336-20.928467 10.464233-28.402919 56.058394-50.078832 88.19854-121.833577 88.19854-196.578103 0-146.49927-121.086131-265.343066-270.575182-265.343065S241.424818 182.376642 241.424818 328.875912c0 74.744526 32.140146 145.751825 88.19854 196.578103 8.221898 7.474453 11.959124 17.938686 10.464233 28.402919-1.494891 10.464234-8.221898 19.433577-17.938686 23.918248-129.308029 61.290511-217.506569 239.182482-233.950365 382.691971z" fill="#2295FF" p-id="25971"></path></svg>