<?xml version="1.0" standalone="no"?><!DOCTYPE svg PUBLIC "-//W3C//DTD SVG 1.1//EN" "http://www.w3.org/Graphics/SVG/1.1/DTD/svg11.dtd"><svg t="1509690834237" class="icon" style="" viewBox="0 0 1024 1024" version="1.1" xmlns="http://www.w3.org/2000/svg" p-id="19099" xmlns:xlink="http://www.w3.org/1999/xlink" width="48" height="48"><defs><style type="text/css"></style></defs><path d="M896 64v896H128V64h768m0-64H128C89.6 0 64 25.6 64 64v896c0 38.4 25.6 64 64 64h768c38.4 0 64-25.6 64-64V64c0-38.4-25.6-64-64-64z" p-id="19100" fill="#2295FF"></path><path d="M256 192h512v64H256zM256 384h512v64H256zM256 576h192v64H256z" p-id="19101" fill="#2295FF"></path><path d="M256 576h512v64H256zM256 768h192v64H256z" p-id="19102" fill="#2295FF"></path></svg>