<?xml version="1.0" standalone="no"?><!DOCTYPE svg PUBLIC "-//W3C//DTD SVG 1.1//EN" "http://www.w3.org/Graphics/SVG/1.1/DTD/svg11.dtd"><svg t="1510649841785" class="icon" style="" viewBox="0 0 1024 1024" version="1.1" xmlns="http://www.w3.org/2000/svg" p-id="6699" xmlns:xlink="http://www.w3.org/1999/xlink" width="16" height="16"><defs><style type="text/css"></style></defs><path d="M971.000925 396.791072c-8.006348-23.091928-28.557406-39.998993-53.29481-43.672662l-240.645802-35.776831L572.464093 100.167351c-11.008728-22.804379-34.56626-37.401842-60.46307-37.401842-25.897833 0-49.456389 14.59644-60.464093 37.401842L346.94071 317.342602l-240.675478 35.776831c-24.707728 3.673669-45.25674 20.580734-53.234435 43.672662-7.951089 23.153326-1.937119 48.643883 15.518438 66.044182L244.911966 638.910435l-40.897456 244.251933c-4.161786 24.596188 6.503111 49.278333 27.402093 63.673182 11.473309 7.890714 24.969695 11.907191 38.46608 11.907191 11.099802 0 22.230304-2.719948 32.31601-8.123005l209.803353-112.952538 209.833029 112.952538c10.084683 5.403057 21.210068 8.123005 32.280194 8.123005 13.501502 0 26.997887-4.016477 38.500872-11.907191 20.892843-14.394848 31.503505-39.076994 27.372418-63.673182l-40.929178-244.251933 176.422082-176.075181C972.907345 445.404256 978.890616 419.914722 971.000925 396.791072L971.000925 396.791072z" p-id="6700" fill="#ff9a0d"></path><path d="M731.312938 593.501222" p-id="6701" fill="#ff9a0d"></path></svg>