<?xml version="1.0" standalone="no"?><!DOCTYPE svg PUBLIC "-//W3C//DTD SVG 1.1//EN" "http://www.w3.org/Graphics/SVG/1.1/DTD/svg11.dtd"><svg t="1509952369560" class="icon" style="" viewBox="0 0 1024 1024" version="1.1" xmlns="http://www.w3.org/2000/svg" p-id="7654" xmlns:xlink="http://www.w3.org/1999/xlink" width="32" height="32"><defs><style type="text/css"></style></defs><path d="M980.768 0.448H42.976a42.56 42.56 0 1 0 0 85.12h937.792a42.56 42.56 0 0 0 0-85.12zM541.952 183.52c-1.792-1.664-2.048-1.856-2.272-2.112l-2.432-1.952-2.88-1.952-2.4-1.408-2.912-1.408-2.88-1.152a215.2 215.2 0 0 1-2.72-0.864l-3.328-0.8-2.848-0.448a89.856 89.856 0 0 1-3.296-0.32h-4.256c-2.464 0.192-2.88 0.288-3.296 0.32l-2.848 0.448c-2.432 0.544-2.88 0.672-3.296 0.8l-2.72 0.864-2.88 1.152c-2.08 1.024-2.336 1.088-2.624 1.28l-2.688 1.536c-2.112 1.44-2.496 1.664-2.848 1.952l-2.464 1.952-2.304 2.112L97.952 567.68a42.592 42.592 0 0 0 60.16 60.224l311.2-311.488v664.32a42.56 42.56 0 0 0 85.12 0V316.384l311.168 311.488a42.56 42.56 0 1 0 60.16-60.224L541.952 183.52z" p-id="7655" fill="#999999"></path></svg>